HIERARCHY
ROOT Hips
{
	OFFSET 0.000000 97.167313 0.000000
	CHANNELS 6 Xposition Yposition Zposition Xrotation Yrotation Zrotation
	JOINT Spine
	{
		OFFSET 0.000000 13.784798 0.064400
		CHANNELS 3 Xrotation Yrotation Zrotation
		JOINT Spine1
		{
			OFFSET 0.000000 12.037903 0.404700
			CHANNELS 3 Xrotation Yrotation Zrotation
			JOINT Spine2
			{
				OFFSET 0.000000 17.795601 0.420200
				CHANNELS 3 Xrotation Yrotation Zrotation
				JOINT Neck
				{
					OFFSET 0.000000 39.131302 11.954600
					CHANNELS 3 Xrotation Yrotation Zrotation
					JOINT Head
					{
						OFFSET 0.000000 14.456192 15.627699
						CHANNELS 3 Xrotation Yrotation Zrotation
						JOINT HeadTop_End
						{
							OFFSET 0.000000 15.703506 7.603401
							CHANNELS 3 Xrotation Yrotation Zrotation
							End Site
							{
								OFFSET 0.000000 17.447403 0.000000
							}
						}
					}
				}
				JOINT LeftShoulder
				{
					OFFSET 17.399500 24.608795 1.168800
					CHANNELS 3 Xrotation Yrotation Zrotation
					JOINT LeftArm
					{
						OFFSET 18.980635 5.765305 1.818600
						CHANNELS 3 Xrotation Yrotation Zrotation
						JOINT LeftForeArm
						{
							OFFSET 49.290169 0.000000 0.000000
							CHANNELS 3 Xrotation Yrotation Zrotation
							JOINT LeftHand
							{
								OFFSET 31.562012 0.000000 0.000000
								CHANNELS 3 Xrotation Yrotation Zrotation
								JOINT LeftHandThumb1
								{
									OFFSET 6.133995 -4.388519 7.076070
									CHANNELS 3 Xrotation Yrotation Zrotation
									JOINT LeftHandThumb2
									{
										OFFSET 6.037666 -3.485840 3.485847
										CHANNELS 3 Xrotation Yrotation Zrotation
										JOINT LeftHandThumb3
										{
											OFFSET 6.496506 -3.750763 3.750761
											CHANNELS 3 Xrotation Yrotation Zrotation
											JOINT LeftHandThumb4
											{
												OFFSET 5.616882 -3.242905 3.242910
												CHANNELS 3 Xrotation Yrotation Zrotation
												End Site
												{
													OFFSET -1.254608 7.132141 0.375429
												}
											}
										}
									}
								}
								JOINT LeftHandPinky1
								{
									OFFSET 18.920792 -0.453171 -11.426712
									CHANNELS 3 Xrotation Yrotation Zrotation
									JOINT LeftHandPinky2
									{
										OFFSET 4.919586 0.000000 0.000000
										CHANNELS 3 Xrotation Yrotation Zrotation
										JOINT LeftHandPinky3
										{
											OFFSET 5.233047 0.000000 0.000000
											CHANNELS 3 Xrotation Yrotation Zrotation
											JOINT LeftHandPinky4
											{
												OFFSET 5.571716 0.000000 0.000000
												CHANNELS 3 Xrotation Yrotation Zrotation
												End Site
												{
													OFFSET -3.459808 4.342407 -0.466164
												}
											}
										}
									}
								}
								JOINT LeftHandRing1
								{
									OFFSET 22.726120 -0.094986 -6.500475
									CHANNELS 3 Xrotation Yrotation Zrotation
									JOINT LeftHandRing2
									{
										OFFSET 6.408615 0.000000 0.000000
										CHANNELS 3 Xrotation Yrotation Zrotation
										JOINT LeftHandRing3
										{
											OFFSET 6.150223 0.000000 0.000000
											CHANNELS 3 Xrotation Yrotation Zrotation
											JOINT LeftHandRing4
											{
												OFFSET 6.145386 0.000000 0.000000
												CHANNELS 3 Xrotation Yrotation Zrotation
												End Site
												{
													OFFSET -3.671402 4.923981 -0.202372
												}
											}
										}
									}
								}
								JOINT LeftHandMiddle1
								{
									OFFSET 23.373947 0.000000 0.000001
									CHANNELS 3 Xrotation Yrotation Zrotation
									JOINT LeftHandMiddle2
									{
										OFFSET 6.996567 0.000000 0.000000
										CHANNELS 3 Xrotation Yrotation Zrotation
										JOINT LeftHandMiddle3
										{
											OFFSET 7.015945 0.000000 0.000000
											CHANNELS 3 Xrotation Yrotation Zrotation
											JOINT LeftHandMiddle4
											{
												OFFSET 7.721573 0.000000 0.000000
												CHANNELS 3 Xrotation Yrotation Zrotation
												End Site
												{
													OFFSET -4.651108 6.158463 0.251582
												}
											}
										}
									}
								}
								JOINT LeftHandIndex1
								{
									OFFSET 21.310577 -0.490082 6.209344
									CHANNELS 3 Xrotation Yrotation Zrotation
									JOINT LeftHandIndex2
									{
										OFFSET 7.536453 0.000000 0.000000
										CHANNELS 3 Xrotation Yrotation Zrotation
										JOINT LeftHandIndex3
										{
											OFFSET 7.512344 0.000000 0.000000
											CHANNELS 3 Xrotation Yrotation Zrotation
											JOINT LeftHandIndex4
											{
												OFFSET 10.212402 0.000000 0.000001
												CHANNELS 3 Xrotation Yrotation Zrotation
												End Site
												{
													OFFSET -5.180801 8.690506 1.388433
												}
											}
										}
									}
								}
							}
						}
					}
				}
				JOINT RightShoulder
				{
					OFFSET -17.399500 24.608795 1.168800
					CHANNELS 3 Xrotation Yrotation Zrotation
					JOINT RightArm
					{
						OFFSET -18.980635 5.765305 1.818600
						CHANNELS 3 Xrotation Yrotation Zrotation
						JOINT RightForeArm
						{
							OFFSET -49.290169 0.000000 0.000000
							CHANNELS 3 Xrotation Yrotation Zrotation
							JOINT RightHand
							{
								OFFSET -31.562012 0.000000 0.000000
								CHANNELS 3 Xrotation Yrotation Zrotation
								JOINT RightHandThumb1
								{
									OFFSET -6.133995 -4.388519 7.076070
									CHANNELS 3 Xrotation Yrotation Zrotation
									JOINT RightHandThumb2
									{
										OFFSET -6.037666 -3.485840 3.485847
										CHANNELS 3 Xrotation Yrotation Zrotation
										JOINT RightHandThumb3
										{
											OFFSET -6.496506 -3.750763 3.750761
											CHANNELS 3 Xrotation Yrotation Zrotation
											JOINT RightHandThumb4
											{
												OFFSET -5.616882 -3.242905 3.242910
												CHANNELS 3 Xrotation Yrotation Zrotation
												End Site
												{
													OFFSET 1.254608 7.132141 0.375429
												}
											}
										}
									}
								}
								JOINT RightHandIndex1
								{
									OFFSET -21.310577 -0.490082 6.209344
									CHANNELS 3 Xrotation Yrotation Zrotation
									JOINT RightHandIndex2
									{
										OFFSET -7.536453 0.000000 0.000000
										CHANNELS 3 Xrotation Yrotation Zrotation
										JOINT RightHandIndex3
										{
											OFFSET -7.512344 0.000000 0.000000
											CHANNELS 3 Xrotation Yrotation Zrotation
											JOINT RightHandIndex4
											{
												OFFSET -10.212402 0.000000 0.000001
												CHANNELS 3 Xrotation Yrotation Zrotation
												End Site
												{
													OFFSET 5.180801 8.690506 1.388433
												}
											}
										}
									}
								}
								JOINT RightHandMiddle1
								{
									OFFSET -23.373947 0.000000 0.000001
									CHANNELS 3 Xrotation Yrotation Zrotation
									JOINT RightHandMiddle2
									{
										OFFSET -6.996567 0.000000 0.000000
										CHANNELS 3 Xrotation Yrotation Zrotation
										JOINT RightHandMiddle3
										{
											OFFSET -7.015945 0.000000 0.000000
											CHANNELS 3 Xrotation Yrotation Zrotation
											JOINT RightHandMiddle4
											{
												OFFSET -7.721573 0.000000 0.000000
												CHANNELS 3 Xrotation Yrotation Zrotation
												End Site
												{
													OFFSET 4.651108 6.158463 0.251582
												}
											}
										}
									}
								}
								JOINT RightHandRing1
								{
									OFFSET -22.726120 -0.094986 -6.500475
									CHANNELS 3 Xrotation Yrotation Zrotation
									JOINT RightHandRing2
									{
										OFFSET -6.408615 0.000000 0.000000
										CHANNELS 3 Xrotation Yrotation Zrotation
										JOINT RightHandRing3
										{
											OFFSET -6.150223 0.000000 0.000000
											CHANNELS 3 Xrotation Yrotation Zrotation
											JOINT RightHandRing4
											{
												OFFSET -6.145386 0.000000 0.000000
												CHANNELS 3 Xrotation Yrotation Zrotation
												End Site
												{
													OFFSET 3.671402 4.923981 -0.202372
												}
											}
										}
									}
								}
								JOINT RightHandPinky1
								{
									OFFSET -18.920792 -0.453171 -11.426712
									CHANNELS 3 Xrotation Yrotation Zrotation
									JOINT RightHandPinky2
									{
										OFFSET -4.919586 0.000000 0.000000
										CHANNELS 3 Xrotation Yrotation Zrotation
										JOINT RightHandPinky3
										{
											OFFSET -5.233047 0.000000 0.000000
											CHANNELS 3 Xrotation Yrotation Zrotation
											JOINT RightHandPinky4
											{
												OFFSET -5.571716 0.000000 0.000000
												CHANNELS 3 Xrotation Yrotation Zrotation
												End Site
												{
													OFFSET 3.459808 4.342407 -0.466164
												}
											}
										}
									}
								}
							}
						}
					}
				}
			}
		}
	}
	JOINT LeftUpLeg
	{
		OFFSET 19.899099 -7.885101 -3.429500
		CHANNELS 3 Xrotation Yrotation Zrotation
		JOINT LeftLeg
		{
			OFFSET 1.745560 -36.997807 10.304700
			CHANNELS 3 Xrotation Yrotation Zrotation
			JOINT LeftFoot
			{
				OFFSET -1.745558 -29.803308 -13.615400
				CHANNELS 3 Xrotation Yrotation Zrotation
				JOINT LeftToeBase
				{
					OFFSET 1.181900 -18.539904 15.226099
					CHANNELS 3 Xrotation Yrotation Zrotation
					JOINT LeftToe_End
					{
						OFFSET -0.863701 1.402801 16.534700
						CHANNELS 3 Xrotation Yrotation Zrotation
						End Site
						{
							OFFSET 0.000000 16.616566 0.000000
						}
					}
				}
			}
		}
	}
	JOINT RightUpLeg
	{
		OFFSET -19.899099 -7.885101 -3.429500
		CHANNELS 3 Xrotation Yrotation Zrotation
		JOINT RightLeg
		{
			OFFSET -1.745560 -36.997807 10.304700
			CHANNELS 3 Xrotation Yrotation Zrotation
			JOINT RightFoot
			{
				OFFSET 1.745558 -29.803308 -13.615400
				CHANNELS 3 Xrotation Yrotation Zrotation
				JOINT RightToeBase
				{
					OFFSET -1.181900 -18.539904 15.226099
					CHANNELS 3 Xrotation Yrotation Zrotation
					JOINT RightToe_End
					{
						OFFSET 0.863701 1.402801 16.534700
						CHANNELS 3 Xrotation Yrotation Zrotation
						End Site
						{
							OFFSET 0.000000 16.616566 0.000000
						}
					}
				}
			}
		}
	}
}
MOTION
Frames: 4
Frame Time: 0.033333
11.812618 84.535416 9.570430 7.094163 -3.117742 -1.832182 13.747914 3.021868 3.191859 3.944646 1.004399 0.811158 3.945008 0.999673 0.789062 4.254174 -1.088502 0.378521 22.322489 -9.348757 0.872519 -0.000001 0.000000 -0.000000 0.933919 9.649626 -13.966467 13.845337 9.466500 -46.548695 0.000004 -8.276128 -0.000005 4.261709 -5.101607 -10.653552 -3.927799 -5.157638 8.886214 18.025470 34.746958 3.259453 0.243027 -4.471308 19.783061 -0.000001 0.000001 -0.000002 3.074078 8.989326 -30.848669 3.429471 5.328015 -65.514102 0.244275 1.675657 -16.586903 -0.000003 -0.000000 -0.000000 1.848900 7.114084 -28.545106 3.257436 5.246585 -63.647295 0.235833 1.647041 -16.295583 -0.000001 0.000003 0.000005 3.001603 9.449387 -27.135437 3.184510 5.209994 -62.847139 0.225933 1.612815 -15.947578 0.000001 0.000000 0.000008 1.163653 5.956290 -14.631655 1.620867 4.046003 -43.649239 0.212665 1.565719 -15.469894 -0.000003 0.000001 0.000001 0.591347 -5.550077 9.720144 -14.431259 2.912671 67.246586 0.000003 25.649522 0.000009 3.780949 -4.631056 -6.830260 -4.704650 7.165783 -8.305784 20.447563 -39.321058 -1.310875 0.682354 0.576504 -24.720994 -0.000002 0.000000 0.000005 1.015800 -5.268856 24.424574 1.643180 -3.552000 49.640019 0.020726 -0.439404 5.402034 0.000002 0.000001 -0.000003 1.397914 -5.757267 32.379922 2.739223 -4.244696 65.656600 0.032642 -0.551049 6.780415 -0.000000 -0.000000 -0.000001 0.872827 -4.929162 33.285387 2.867565 -4.300292 67.379181 0.031816 -0.544028 6.693701 -0.000001 -0.000000 -0.000003 2.138874 -6.978251 36.435706 3.070224 -4.379009 70.056970 0.033198 -0.555649 6.837368 -0.000000 -0.000001 0.000000 -11.737424 4.184721 -1.309304 39.236240 1.874239 -1.653528 -29.734812 0.920715 4.077459 -7.694042 -0.000002 -0.000001 -0.000000 -0.000000 -0.000000 -87.001194 6.466042 -8.716988 42.545409 -3.197781 1.633306 13.178094 -0.302153 -3.090581 -0.944730 0.000002 -0.000005 -0.000001 0.000001 0.000001 
11.571973 84.406281 9.543989 7.097958 -3.807493 -1.791201 13.504949 3.496076 2.938450 3.912404 1.151692 0.806117 3.915563 1.142631 0.776851 4.308700 -1.133869 0.428766 22.784154 -9.573931 1.044677 -0.000003 -0.000000 0.000000 0.917333 9.823478 -13.852470 14.276747 11.260375 -45.905773 0.000009 -8.512085 0.000011 3.876242 -4.031757 -11.360039 -3.927800 -5.157638 8.886220 17.898845 34.584656 3.375525 0.270585 -4.549920 19.890021 -0.000003 0.000001 -0.000003 3.227797 9.130008 -31.614337 3.476979 5.349294 -66.024830 0.215661 1.576434 -15.578468 0.000002 0.000002 -0.000005 1.926303 7.199118 -29.213744 3.297551 5.266200 -64.085199 0.207410 1.546565 -15.275824 0.000001 0.000004 0.000000 3.149622 9.613085 -27.753821 3.221502 5.228732 -63.253795 0.197764 1.510817 -14.914307 -0.000001 -0.000001 0.000002 1.216535 6.076199 -15.149308 1.638877 4.064752 -43.903841 0.184905 1.461691 -14.418432 -0.000002 -0.000000 -0.000001 0.601508 -5.590012 9.761169 -14.621994 2.413580 67.135371 0.000003 24.864697 0.000028 4.285387 -4.476739 -6.788723 -4.704649 7.165785 -8.305785 20.524281 -39.424784 -1.222742 0.656213 0.766913 -24.986732 -0.000005 0.000001 -0.000002 1.086705 -5.372561 26.305242 1.714093 -3.610960 50.775309 0.005674 -0.230069 2.825528 -0.000000 -0.000003 -0.000001 1.409454 -5.717416 34.056146 2.813210 -4.277308 66.652394 0.012969 -0.347766 4.273041 0.000001 0.000001 -0.000009 0.881536 -4.939556 34.962437 2.948544 -4.333052 68.454956 0.012349 -0.339286 4.168685 -0.000000 -0.000001 -0.000002 2.234965 -7.008471 38.242680 3.160292 -4.410555 71.232364 0.013191 -0.350621 4.308177 -0.000000 -0.000001 -0.000001 -11.637053 4.088924 -1.092733 39.519201 2.438064 -1.720373 -30.134822 1.141816 3.578557 -7.693857 0.000001 0.000001 0.000000 0.000000 0.000000 -87.340341 6.525344 -8.562019 42.818613 -3.121370 1.632343 13.683771 -0.302090 -3.246766 -0.896575 -0.000001 -0.000003 0.000002 0.000000 -0.000000 
11.270191 84.206474 9.584856 6.853084 -4.543734 -1.744997 13.299551 3.820412 2.551770 3.881475 1.266195 0.772867 3.886938 1.252712 0.739169 4.408629 -1.154493 0.484112 23.472155 -9.593300 1.404562 0.000001 -0.000000 -0.000000 0.895804 9.960687 -13.720163 14.649608 13.000207 -45.142762 0.000003 -9.099195 0.000014 3.156110 -2.793333 -12.324009 -3.927798 -5.157638 8.886214 17.763138 34.410148 3.499149 0.299908 -4.634062 20.004985 -0.000000 -0.000000 0.000000 3.439323 9.293716 -32.786967 3.548783 5.380517 -66.792659 0.174454 1.420441 -14.002884 -0.000002 0.000003 -0.000000 2.041422 7.313305 -30.279356 3.361021 5.296428 -64.774686 0.166732 1.389132 -13.688088 -0.000002 -0.000001 0.000005 3.358138 9.802722 -28.768890 3.281460 5.258385 -63.909780 0.157748 1.351686 -13.312079 0.000002 0.000002 0.000009 1.297018 6.233789 -16.051510 1.673892 4.100741 -44.395820 0.145811 1.300264 -12.796674 -0.000001 0.000001 0.000001 0.601457 -5.663183 9.735602 -14.377138 2.163359 67.172342 0.000008 23.876202 0.000014 5.061427 -4.381815 -6.353726 -4.704652 7.165782 -8.305779 20.585596 -39.507993 -1.151701 0.632595 0.950724 -25.243006 0.000005 -0.000003 0.000002 1.151108 -5.464241 27.926945 1.775406 -3.660050 51.742190 0.000246 -0.048327 0.593273 -0.000001 -0.000002 0.000003 1.413678 -5.682971 35.488577 2.876704 -4.304085 67.501113 0.003155 -0.171579 2.106661 0.000001 0.000000 -0.000009 0.883498 -4.945270 36.399434 3.018677 -4.360012 69.380358 0.002806 -0.161793 1.986501 -0.000000 -0.000000 -0.000003 2.319718 -7.037430 39.805489 3.239200 -4.436505 72.255390 0.003210 -0.172899 2.122956 -0.000002 0.000000 -0.000003 -11.193950 3.979426 -0.848469 39.935071 3.038337 -1.803084 -30.743405 1.389049 2.997809 -7.693348 -0.000000 -0.000000 0.000000 -0.000000 -0.000000 -87.668511 6.507435 -8.275139 43.277735 -2.971227 1.682688 14.383620 -0.297541 -3.294546 -0.649239 0.000011 -0.000002 0.000001 -0.000000 0.000000 
10.953559 83.959480 9.675072 6.371567 -5.037086 -1.753642 13.187266 3.859208 2.131371 3.855068 1.303716 0.725200 3.861290 1.286867 0.690826 4.540138 -1.149296 0.530185 24.273599 -9.471314 1.834861 0.000001 -0.000000 -0.000000 0.866589 10.038152 -13.558560 15.040078 14.299564 -44.200866 -0.000001 -10.108141 -0.000016 2.850890 -1.772040 -13.366592 -3.927801 -5.157637 8.886219 17.621231 34.226942 3.627832 0.330584 -4.722028 20.125569 -0.000002 -0.000001 -0.000003 3.695972 9.468462 -34.247183 3.638069 5.417766 -67.741557 0.128893 1.223380 -12.028089 -0.000003 0.000000 -0.000002 2.185724 7.445441 -31.624988 3.441315 5.333352 -65.641485 0.121997 1.190550 -11.700575 0.000001 -0.000002 0.000005 3.614104 10.005789 -30.064331 3.357949 5.294998 -64.741417 0.113986 1.151279 -11.309359 0.000000 0.000001 0.000006 1.399477 6.416630 -17.224958 1.721317 4.148492 -45.055022 0.103484 1.097409 -10.773519 -0.000001 0.000001 -0.000001 0.604075 -5.775681 9.718084 -13.668923 2.036904 67.320175 0.000007 22.748275 0.000017 5.911470 -4.500288 -5.568912 -4.704648 7.165783 -8.305784 20.619723 -39.557198 -1.110122 0.616083 1.123336 -25.483803 -0.000002 -0.000001 0.000002 1.201936 -5.537097 29.114942 1.819341 -3.694209 52.427330 0.000803 0.086612 -1.063229 -0.000002 -0.000003 -0.000002 1.411162 -5.655149 36.513607 2.922019 -4.322527 68.103529 0.000184 -0.041596 0.510611 -0.000001 -0.000002 -0.000009 0.876761 -4.941433 37.434945 3.070010 -4.378923 70.054074 0.000103 -0.030761 0.377635 -0.000000 0.000000 -0.000005 2.386390 -7.065634 40.959722 3.298737 -4.455058 73.023438 0.000190 -0.041789 0.513005 -0.000002 -0.000001 0.000007 -10.541208 3.886134 -0.559325 40.489945 3.403164 -1.886858 -31.453807 1.584733 2.510023 -7.692561 0.000000 -0.000000 -0.000000 -0.000000 0.000000 -87.976108 6.454911 -8.058883 44.120925 -2.924463 1.842230 15.021089 -0.287820 -3.486835 -1.076031 -0.000000 0.000003 0.000003 -0.000001 0.000000 
